<?xml version="1.0" encoding="UTF-8" standalone="no"?>
<svg
   xmlns:dc="http://purl.org/dc/elements/1.1/"
   xmlns:cc="http://creativecommons.org/ns#"
   xmlns:rdf="http://www.w3.org/1999/02/22-rdf-syntax-ns#"
   xmlns:svg="http://www.w3.org/2000/svg"
   xmlns="http://www.w3.org/2000/svg"
   xmlns:xlink="http://www.w3.org/1999/xlink"
   xmlns:sodipodi="http://sodipodi.sourceforge.net/DTD/sodipodi-0.dtd"
   xmlns:inkscape="http://www.inkscape.org/namespaces/inkscape"
   viewBox="0 0 300 185"
   version="1.1"
   id="svg25"
   sodipodi:docname="cirrus-logo-alt.svg"
   inkscape:version="1.0.2 (1.0.2+r75+1)"
   width="300"
   height="185">
  <metadata
     id="metadata29">
    <rdf:RDF>
      <cc:Work
         rdf:about="">
        <dc:format>image/svg+xml</dc:format>
        <dc:type
           rdf:resource="http://purl.org/dc/dcmitype/StillImage" />
        <dc:title></dc:title>
      </cc:Work>
    </rdf:RDF>
  </metadata>
  <sodipodi:namedview
     pagecolor="#ffffff"
     bordercolor="#666666"
     borderopacity="1"
     objecttolerance="10"
     gridtolerance="10"
     guidetolerance="10"
     inkscape:pageopacity="0"
     inkscape:pageshadow="2"
     inkscape:window-width="1600"
     inkscape:window-height="844"
     id="namedview27"
     showgrid="false"
     inkscape:zoom="6.2479516"
     inkscape:cx="130.16396"
     inkscape:cy="97.72714"
     inkscape:window-x="0"
     inkscape:window-y="0"
     inkscape:window-maximized="1"
     inkscape:current-layer="svg25"
     inkscape:document-rotation="0"
     fit-margin-top="0"
     fit-margin-left="0"
     fit-margin-right="0"
     fit-margin-bottom="0"
     showguides="true"
     inkscape:guide-bbox="true">
    <sodipodi:guide
       position="150,215.73007"
       orientation="-1,0"
       id="guide908"
       inkscape:label=""
       inkscape:locked="false"
       inkscape:color="rgb(0,0,255)" />
    <sodipodi:guide
       position="43,132.03448"
       orientation="-1,0"
       id="guide910"
       inkscape:label=""
       inkscape:locked="false"
       inkscape:color="rgb(0,0,255)" />
    <sodipodi:guide
       position="257,35.157389"
       orientation="-1,0"
       id="guide912"
       inkscape:label=""
       inkscape:locked="false"
       inkscape:color="rgb(0,0,255)" />
  </sodipodi:namedview>
  <defs
     id="defs7">
    <radialGradient
       id="radialGradient1010"
       cx="352.98001"
       cy="287.32999"
       r="257.76001"
       gradientTransform="matrix(0.58299736,0,0,0.35664263,-58.021364,-8.5764241)"
       gradientUnits="userSpaceOnUse">
      <stop
         stop-color="#2db4e1"
         offset="0"
         id="stop2" />
      <stop
         stop-color="#2db4e1"
         stop-opacity="0"
         offset="1"
         id="stop4" />
    </radialGradient>
    <linearGradient
       inkscape:collect="always"
       xlink:href="#linearGradient2700"
       id="linearGradient976"
       gradientUnits="userSpaceOnUse"
       x1="8.0590553"
       y1="17.258068"
       x2="18.324583"
       y2="4.7838988"
       gradientTransform="matrix(0.99503277,0.09153897,-0.09046355,1.0068617,1.2289335,-0.73324342)" />
    <linearGradient
       inkscape:collect="always"
       id="linearGradient2700">
      <stop
         style="stop-color:#00bfff;stop-opacity:1;"
         offset="0"
         id="stop2696" />
      <stop
         style="stop-color:#00bfff;stop-opacity:0;"
         offset="1"
         id="stop2698" />
    </linearGradient>
    <linearGradient
       inkscape:collect="always"
       xlink:href="#linearGradient2700"
       id="linearGradient2702"
       x1="13.535628"
       y1="17.910057"
       x2="16.889626"
       y2="12.605408"
       gradientUnits="userSpaceOnUse"
       gradientTransform="matrix(0.93353934,0.11619315,-0.12396285,0.99596402,2.687543,-1.2993544)" />
    <linearGradient
       inkscape:collect="always"
       xlink:href="#linearGradient951"
       id="linearGradient953"
       x1="17.120003"
       y1="17.507103"
       x2="21.704039"
       y2="17.507103"
       gradientUnits="userSpaceOnUse" />
    <linearGradient
       inkscape:collect="always"
       id="linearGradient951">
      <stop
         style="stop-color:#ffffff;stop-opacity:1;"
         offset="0"
         id="stop947" />
      <stop
         style="stop-color:#ffffff;stop-opacity:0;"
         offset="1"
         id="stop949" />
    </linearGradient>
    <linearGradient
       inkscape:collect="always"
       xlink:href="#linearGradient2700"
       id="linearGradient945"
       x1="21.109785"
       y1="20.140623"
       x2="21.515745"
       y2="15.192"
       gradientUnits="userSpaceOnUse" />
  </defs>
  <path
     d="M 298.50785,1.4944489 H 0.38042075 C 35.153208,10.585782 79.621398,83.335005 116.14053,104.94796 c 25.64225,15.16721 40.90688,15.73012 64.29857,0.0183 12.8281,-7.588186 34.68864,-21.055008 32.71655,-10.797491 -1.39966,7.279971 -1.793,13.499351 -1.35451,18.859191 3.62345,44.29786 68.02497,29.97704 86.69478,71.35745 z"
     fill="none"
     stroke="url(#radialGradient1010)"
     stroke-dashoffset="120"
     stroke-width="2.98889"
     id="path11"
     style="stroke:url(#radialGradient1010)"
     sodipodi:nodetypes="ccccsccc" />
  <g
     id="g913"
     transform="matrix(1.7906244,0,0,1.8001782,126.42372,61.737507)">
    <path
       d="M 6.1548142,20.343437 C 4.52412,17.012615 7.6066453,14.652448 9.9797828,12.43168 11.933837,10.60309 12.843983,8.6792912 12.621893,6.8347579"
       stroke="#2db4e1"
       id="path966"
       style="fill:none;stroke:url(#linearGradient976);stroke-width:1.22027;stroke-linecap:round;stroke-miterlimit:4;stroke-dasharray:none;stroke-opacity:1"
       sodipodi:nodetypes="csc" />
    <g
       id="g1468"
       transform="matrix(0.99573422,0,0,0.9942683,-0.28679385,-0.53451159)">
      <path
         d="m 11.296407,15.123255 c -0.522194,0.41881 -0.755908,0.567191 -1.105021,1.316026 -0.3492687,0.748857 -0.3863029,1.666378 -0.09882,2.425638 0.287851,0.759349 0.894736,1.344959 1.604718,1.548281 0.709955,0.203191 1.508453,0.0201 2.110973,-0.484094 0.520039,-0.435259 0.881368,-1.08054 1.114414,-1.76017 0.233158,-0.679615 0.348008,-1.398799 0.458788,-2.11303 0.111921,-0.714134 0.219923,-1.433775 0.441731,-2.117859 0.221807,-0.684042 0.566274,-1.338495 1.072114,-1.795081"
         stroke="#33ccff"
         id="path2694"
         style="fill:none;stroke:url(#linearGradient2702);stroke-width:1.1055;stroke-linecap:round;stroke-linejoin:miter;stroke-miterlimit:20;stroke-dasharray:none;stroke-opacity:1;paint-order:normal"
         sodipodi:nodetypes="ccccccccc" />
      <path
         d="m 11.329784,15.073312 c -0.894064,0.299766 -1.6358873,1.016445 -1.9612586,1.895259 -0.3255666,0.878863 -0.2274573,1.9017 0.2582079,2.704193 0.4861537,0.80254 1.3504427,1.368319 2.2853127,1.495829 0.93482,0.127364 1.921086,-0.185962 2.607363,-0.828401 0.592317,-0.554592 0.94961,-1.320231 1.138361,-2.106258 0.188896,-0.786027 0.221111,-1.59961 0.248933,-2.407138 0.02929,-0.807578 0.05272,-1.620724 0.226482,-2.410141 0.173765,-0.789368 0.46098,-1.494425 0.826009,-2.13914"
         stroke="#33ccff"
         id="path2"
         style="fill:none;stroke-width:1.05833;stroke-linecap:round;stroke-linejoin:miter;stroke-miterlimit:20;stroke-dasharray:none"
         sodipodi:nodetypes="ccccccccc" />
    </g>
    <g
       id="g1464"
       transform="matrix(1.0621972,0,0,1.0859323,-2.2122817,-2.5296373)">
      <path
         d="m 18.907178,13.604988 c 1.034405,1.375457 2.634678,4.093344 2.291323,5.608706 -0.06647,0.272884 -0.192032,0.53285 -0.372811,0.748842 -0.180793,0.215953 -0.417987,0.387182 -0.684276,0.481408 -0.266249,0.09422 -0.561523,0.109693 -0.832942,0.03412 -0.271224,-0.07563 -0.517141,-0.244047 -0.676132,-0.475145 -0.204475,-0.296895 -0.255224,-0.692579 -0.132495,-1.032235"
         stroke="#2db4e1"
         id="path921"
         style="fill:url(#linearGradient953);fill-opacity:0;stroke:url(#linearGradient945);stroke-width:0.893132;stroke-linecap:round;stroke-miterlimit:4;stroke-dasharray:none;stroke-opacity:1"
         sodipodi:nodetypes="ccccccc" />
      <path
         d="m 18.992872,13.598999 c 0.302137,0.341414 0.594952,0.69111 0.878102,1.048262 0.448569,0.566118 0.8741,1.152769 1.229588,1.780777 0.328007,0.579096 0.597539,1.200228 0.695892,1.857195 0.0986,0.656968 0.01464,1.355147 -0.325078,1.927464 -0.169861,0.286206 -0.4022,0.537303 -0.681884,0.719439 -0.279685,0.182087 -0.60779,0.293955 -0.942191,0.308483 -0.334352,0.01453 -0.674318,-0.07022 -0.955711,-0.249886 -0.281149,-0.179666 -0.50148,-0.455703 -0.601591,-0.772661 -0.128859,-0.407275 -0.0493,-0.873245 0.207445,-1.215627"
         stroke="#2db4e1"
         id="path4"
         style="fill:none;stroke:#33ccff;stroke-width:1.05833;stroke-linecap:round;stroke-miterlimit:4;stroke-dasharray:none;stroke-opacity:1" />
    </g>
    <path
       d="M 6.2024773,20.467725 C 3.9825042,17.176006 6.8261456,14.792125 9.1083286,12.259014 10.987489,10.173239 12.210141,7.8344068 12.305753,6.1223874"
       stroke="#2db4e1"
       id="path6"
       style="fill:none;stroke:#33ccff;stroke-width:1.26648;stroke-linecap:round;stroke-miterlimit:4;stroke-dasharray:none;stroke-opacity:1"
       sodipodi:nodetypes="csc" />
  </g>
</svg>
