<svg width="26.458mm" height="26.458mm" version="1.1" viewBox="0 0 26.458 26.458" xmlns="http://www.w3.org/2000/svg" xmlns:xlink="http://www.w3.org/1999/xlink"><style>@keyframes fade{from{opacity: 0}to{opacity: 1}}.cirrus-a,.cirrus-b,.cirrus-c{opacity: 0}.cirrus-a{animation: fade .2s ease-out 0s 1 both}.cirrus-c{ animation: fade .2s ease-out .4s 1 both}.cirrus-b{ animation: fade .2s ease-out .2s 1 both;}</style><defs><linearGradient id="linearGradient2700"><stop stop-color="#00bfff" offset="0"/><stop stop-color="#00bfff" stop-opacity="0" offset="1"/></linearGradient><linearGradient id="linearGradient2702" x1="13.536" x2="16.89" y1="17.91" y2="12.605" gradientTransform="matrix(.93354 .11619 -.12396 .99596 2.6875 -1.2994)" gradientUnits="userSpaceOnUse" xlink:href="#linearGradient2700"/><linearGradient id="linearGradient945" x1="21.11" x2="21.516" y1="20.141" y2="15.192" gradientUnits="userSpaceOnUse"><stop stop-color="#00bfff" offset="0"/><stop stop-color="#00bfff" stop-opacity="0" offset="1"/></linearGradient><linearGradient id="linearGradient976" x1="8.0591" x2="18.325" y1="17.258" y2="4.7839" gradientTransform="matrix(1.0057 .093013 -.091432 1.0231 1.1638 -1.0309)" gradientUnits="userSpaceOnUse" xlink:href="#linearGradient2700"/></defs><g class="cirrus-c" transform="matrix(1.0064 0 0 1.0103 -.36817 -.82897)" fill="none" stroke-linecap="round" stroke-miterlimit="20"><path d="m11.296 15.123c-0.52219 0.41881-0.75591 0.56719-1.105 1.316-0.34927 0.74886-0.3863 1.6664-0.09882 2.4256 0.28785 0.75935 0.89474 1.345 1.6047 1.5483 0.70996 0.20319 1.5085 0.0201 2.111-0.48409 0.52004-0.43526 0.88137-1.0805 1.1144-1.7602 0.23316-0.67962 0.34801-1.3988 0.45879-2.113 0.11192-0.71413 0.21992-1.4338 0.44173-2.1179 0.22181-0.68404 0.56627-1.3385 1.0721-1.7951" stroke="url(#linearGradient2702)" stroke-width="1.1055" style="paint-order:normal"/><path d="m11.33 15.073c-0.89406 0.29977-1.6359 1.0164-1.9613 1.8953-0.32557 0.87886-0.22746 1.9017 0.25821 2.7042 0.48615 0.80254 1.3504 1.3683 2.2853 1.4958 0.93482 0.12736 1.9211-0.18596 2.6074-0.8284 0.59232-0.55459 0.94961-1.3202 1.1384-2.1063 0.1889-0.78603 0.22111-1.5996 0.24893-2.4071 0.02929-0.80758 0.05272-1.6207 0.22648-2.4101 0.17376-0.78937 0.46098-1.4944 0.82601-2.1391" stroke="#3cf" stroke-width="1.0583"/></g><g class="cirrus-b" transform="matrix(1.0736 0 0 1.1034 -2.3143 -2.8562)" stroke-linecap="round"><path d="m18.907 13.605c1.0344 1.3755 2.6347 4.0933 2.2913 5.6087-0.06647 0.27288-0.19203 0.53285-0.37281 0.74884-0.18079 0.21595-0.41799 0.38718-0.68428 0.48141-0.26625 0.09422-0.56152 0.10969-0.83294 0.03412-0.27122-0.07563-0.51714-0.24405-0.67613-0.47514-0.20448-0.2969-0.25522-0.69258-0.1325-1.0322" fill-opacity="0" stroke="url(#linearGradient945)" stroke-width=".89313"/><path d="m18.993 13.599c0.30214 0.34141 0.59495 0.69111 0.8781 1.0483 0.44857 0.56612 0.8741 1.1528 1.2296 1.7808 0.32801 0.5791 0.59754 1.2002 0.69589 1.8572 0.0986 0.65697 0.01464 1.3551-0.32508 1.9275-0.16986 0.28621-0.4022 0.5373-0.68188 0.71944-0.27968 0.18209-0.60779 0.29396-0.94219 0.30848-0.33435 0.01453-0.67432-0.07022-0.95571-0.24989-0.28115-0.17967-0.50148-0.4557-0.60159-0.77266-0.12886-0.40728-0.0493-0.87324 0.20744-1.2156" fill="none" stroke="#3cf" stroke-width="1.0583"/></g><g class="cirrus-a" fill="none" stroke-linecap="round"><path d="m6.1424 20.385c-1.6482-3.3844 1.4674-5.7826 3.8659-8.0391 1.975-1.858 2.8949-3.8128 2.6704-5.687" stroke="url(#linearGradient976)" stroke-width="1.2366"/><path d="m6.1906 20.511c-2.2437-3.3447 0.63035-5.767 2.937-8.3409 1.8993-2.1194 3.135-4.4958 3.2317-6.2354" stroke="#3cf" stroke-width="1.2834"/></g></svg>