<?xml version="1.0" encoding="UTF-8" standalone="no"?>
<svg
   xmlns:dc="http://purl.org/dc/elements/1.1/"
   xmlns:cc="http://creativecommons.org/ns#"
   xmlns:rdf="http://www.w3.org/1999/02/22-rdf-syntax-ns#"
   xmlns:svg="http://www.w3.org/2000/svg"
   xmlns="http://www.w3.org/2000/svg"
   xmlns:sodipodi="http://sodipodi.sourceforge.net/DTD/sodipodi-0.dtd"
   xmlns:inkscape="http://www.inkscape.org/namespaces/inkscape"
   width="26.458mm"
   height="26.458mm"
   version="1.1"
   viewBox="0 0 26.458 26.458"
   id="svg16"
   sodipodi:docname="cirrus-logo.svg"
   inkscape:version="1.0.2 (1.0.2+r75+1)">
  <metadata
     id="metadata22">
    <rdf:RDF>
      <cc:Work
         rdf:about="">
        <dc:format>image/svg+xml</dc:format>
        <dc:type
           rdf:resource="http://purl.org/dc/dcmitype/StillImage" />
      </cc:Work>
    </rdf:RDF>
  </metadata>
  <defs
     id="defs20" />
  <sodipodi:namedview
     pagecolor="#ffffff"
     bordercolor="#666666"
     borderopacity="1"
     objecttolerance="10"
     gridtolerance="10"
     guidetolerance="10"
     inkscape:pageopacity="0"
     inkscape:pageshadow="2"
     inkscape:window-width="1600"
     inkscape:window-height="844"
     id="namedview18"
     showgrid="false"
     inkscape:snap-object-midpoints="true"
     inkscape:snap-center="true"
     inkscape:snap-text-baseline="true"
     inkscape:snap-page="true"
     inkscape:zoom="2.2727108"
     inkscape:cx="25.561894"
     inkscape:cy="20.020315"
     inkscape:window-x="0"
     inkscape:window-y="0"
     inkscape:window-maximized="1"
     inkscape:current-layer="svg16" />
  <rect
     style="fill:#ffffff;fill-opacity:1;stroke-width:0.529173;stroke-linejoin:round;stroke-dashoffset:120"
     id="rect862"
     width="26.458334"
     height="26.458334"
     x="0"
     y="0"
     inkscape:export-xdpi="491.51999"
     inkscape:export-ydpi="491.51999" />
  <g
     transform="matrix(1.0079,0,0,0.99999,-91.46945,-163.45651)"
     id="g10">
    <g
       transform="matrix(4.8428,0,0,4.8428,-809.25,-428.49)"
       fill="none"
       stroke-linecap="round"
       stroke-width="0.4"
       id="g8">
      <path
         d="m 188.04,125.27 c -0.18317,0.0619 -0.33515,0.20989 -0.40181,0.39136 -0.0667,0.18148 -0.0466,0.39269 0.0529,0.5584 0.0996,0.16572 0.27667,0.28255 0.4682,0.30888 0.19152,0.0263 0.39358,-0.0384 0.53418,-0.17106 0.12135,-0.11452 0.19455,-0.27262 0.23322,-0.43493 0.0387,-0.16231 0.0453,-0.33031 0.051,-0.49706 0.006,-0.16676 0.0108,-0.33467 0.0464,-0.49768 0.0356,-0.163 0.10411,-0.32272 0.22107,-0.44172 0.0851,-0.0866 0.19444,-0.14926 0.31222,-0.17891 0.11779,-0.0297 0.24371,-0.0262 0.35972,0.01"
         stroke="#33ccff"
         id="path2" />
      <path
         d="m 189.67,124.95 c 0.0619,0.0705 0.12189,0.14271 0.1799,0.21646 0.0919,0.1169 0.17908,0.23804 0.25191,0.36772 0.0672,0.11958 0.12242,0.24784 0.14257,0.3835 0.0202,0.13566 0.003,0.27983 -0.0666,0.39801 -0.0348,0.0591 -0.0824,0.11095 -0.1397,0.14856 -0.0573,0.0376 -0.12452,0.0607 -0.19303,0.0637 -0.0685,0.003 -0.13815,-0.0145 -0.1958,-0.0516 -0.0576,-0.0371 -0.10274,-0.0941 -0.12325,-0.15955 -0.0264,-0.0841 -0.0101,-0.18032 0.0425,-0.25102"
         stroke="#2db4e1"
         id="path4" />
      <path
         d="m 187.09,126.54 c -0.0904,-0.0818 -0.15914,-0.18742 -0.19736,-0.30322 -0.0599,-0.18164 -0.0435,-0.38267 0.0195,-0.56327 0.063,-0.1806 0.17018,-0.34282 0.29031,-0.49166 0.24028,-0.29768 0.54042,-0.55633 0.70074,-0.90367 0.0563,-0.12197 0.0936,-0.25168 0.14087,-0.37743 0.0472,-0.12576 0.106,-0.24998 0.19762,-0.34822 0.0458,-0.0491 0.0996,-0.0912 0.1601,-0.12047 0.0605,-0.0293 0.1277,-0.0454 0.19483,-0.0431 0.0671,0.002 0.13401,0.0237 0.18801,0.0636 0.054,0.0399 0.0945,0.0988 0.10886,0.16444 0.0116,0.0527 0.006,0.10899 -0.0152,0.15854 -0.0214,0.0495 -0.0586,0.0921 -0.10486,0.11987"
         stroke="#2db4e1"
         id="path6" />
    </g>
  </g>
</svg>
